<svg width="285.75mm" height="114.3mm" viewBox="0 0 285.75 114.3" xmlns="http://www.w3.org/2000/svg"><g id="svgGroup" stroke-linecap="round" fill-rule="evenodd" font-size="9pt" stroke="#000" stroke-width="0.25mm" fill="none" style="stroke:#000;stroke-width:0.25mm;fill:none"><path d="M 0 114.3 L 285.75 114.3 L 285.75 0 L 0 0 L 0 114.3 Z M 22.075 2.525 L 35.075 2.525 A 0.5 0.5 0 0 1 35.575 3.025 L 35.575 16.025 A 0.5 0.5 0 0 1 35.075 16.525 L 22.075 16.525 A 0.5 0.5 0 0 1 21.575 16.025 L 21.575 3.025 A 0.5 0.5 0 0 1 22.075 2.525 Z M 3.025 21.575 L 16.025 21.575 A 0.5 0.5 0 0 1 16.525 22.075 L 16.525 35.075 A 0.5 0.5 0 0 1 16.025 35.575 L 3.025 35.575 A 0.5 0.5 0 0 1 2.525 35.075 L 2.525 22.075 A 0.5 0.5 0 0 1 3.025 21.575 Z M 22.075 21.575 L 35.075 21.575 A 0.5 0.5 0 0 1 35.575 22.075 L 35.575 35.075 A 0.5 0.5 0 0 1 35.075 35.575 L 22.075 35.575 A 0.5 0.5 0 0 1 21.575 35.075 L 21.575 22.075 A 0.5 0.5 0 0 1 22.075 21.575 Z M 41.125 21.575 L 54.125 21.575 A 0.5 0.5 0 0 1 54.625 22.075 L 54.625 35.075 A 0.5 0.5 0 0 1 54.125 35.575 L 41.125 35.575 A 0.5 0.5 0 0 1 40.625 35.075 L 40.625 22.075 A 0.5 0.5 0 0 1 41.125 21.575 Z M 60.175 21.575 L 73.175 21.575 A 0.5 0.5 0 0 1 73.675 22.075 L 73.675 35.075 A 0.5 0.5 0 0 1 73.175 35.575 L 60.175 35.575 A 0.5 0.5 0 0 1 59.675 35.075 L 59.675 22.075 A 0.5 0.5 0 0 1 60.175 21.575 Z M 79.225 21.575 L 92.225 21.575 A 0.5 0.5 0 0 1 92.725 22.075 L 92.725 35.075 A 0.5 0.5 0 0 1 92.225 35.575 L 79.225 35.575 A 0.5 0.5 0 0 1 78.725 35.075 L 78.725 22.075 A 0.5 0.5 0 0 1 79.225 21.575 Z M 98.275 21.575 L 111.275 21.575 A 0.5 0.5 0 0 1 111.775 22.075 L 111.775 35.075 A 0.5 0.5 0 0 1 111.275 35.575 L 98.275 35.575 A 0.5 0.5 0 0 1 97.775 35.075 L 97.775 22.075 A 0.5 0.5 0 0 1 98.275 21.575 Z M 136.375 21.575 L 149.375 21.575 A 0.5 0.5 0 0 1 149.875 22.075 L 149.875 35.075 A 0.5 0.5 0 0 1 149.375 35.575 L 136.375 35.575 A 0.5 0.5 0 0 1 135.875 35.075 L 135.875 22.075 A 0.5 0.5 0 0 1 136.375 21.575 Z M 155.425 21.575 L 168.425 21.575 A 0.5 0.5 0 0 1 168.925 22.075 L 168.925 35.075 A 0.5 0.5 0 0 1 168.425 35.575 L 155.425 35.575 A 0.5 0.5 0 0 1 154.925 35.075 L 154.925 22.075 A 0.5 0.5 0 0 1 155.425 21.575 Z M 174.475 21.575 L 187.475 21.575 A 0.5 0.5 0 0 1 187.975 22.075 L 187.975 35.075 A 0.5 0.5 0 0 1 187.475 35.575 L 174.475 35.575 A 0.5 0.5 0 0 1 173.975 35.075 L 173.975 22.075 A 0.5 0.5 0 0 1 174.475 21.575 Z M 193.525 21.575 L 206.525 21.575 A 0.5 0.5 0 0 1 207.025 22.075 L 207.025 35.075 A 0.5 0.5 0 0 1 206.525 35.575 L 193.525 35.575 A 0.5 0.5 0 0 1 193.025 35.075 L 193.025 22.075 A 0.5 0.5 0 0 1 193.525 21.575 Z M 212.575 21.575 L 225.575 21.575 A 0.5 0.5 0 0 1 226.075 22.075 L 226.075 35.075 A 0.5 0.5 0 0 1 225.575 35.575 L 212.575 35.575 A 0.5 0.5 0 0 1 212.075 35.075 L 212.075 22.075 A 0.5 0.5 0 0 1 212.575 21.575 Z M 231.625 21.575 L 244.625 21.575 A 0.5 0.5 0 0 1 245.125 22.075 L 245.125 35.075 A 0.5 0.5 0 0 1 244.625 35.575 L 231.625 35.575 A 0.5 0.5 0 0 1 231.125 35.075 L 231.125 22.075 A 0.5 0.5 0 0 1 231.625 21.575 Z M 260.2 21.575 L 273.2 21.575 A 0.5 0.5 0 0 1 273.7 22.075 L 273.7 35.075 A 0.5 0.5 0 0 1 273.2 35.575 L 260.2 35.575 A 0.5 0.5 0 0 1 259.7 35.075 L 259.7 22.075 A 0.5 0.5 0 0 1 260.2 21.575 Z M 7.788 40.625 L 20.788 40.625 A 0.5 0.5 0 0 1 21.288 41.125 L 21.288 54.125 A 0.5 0.5 0 0 1 20.788 54.625 L 7.788 54.625 A 0.5 0.5 0 0 1 7.288 54.125 L 7.288 41.125 A 0.5 0.5 0 0 1 7.788 40.625 Z M 31.6 40.625 L 44.6 40.625 A 0.5 0.5 0 0 1 45.1 41.125 L 45.1 54.125 A 0.5 0.5 0 0 1 44.6 54.625 L 31.6 54.625 A 0.5 0.5 0 0 1 31.1 54.125 L 31.1 41.125 A 0.5 0.5 0 0 1 31.6 40.625 Z M 50.65 40.625 L 63.65 40.625 A 0.5 0.5 0 0 1 64.15 41.125 L 64.15 54.125 A 0.5 0.5 0 0 1 63.65 54.625 L 50.65 54.625 A 0.5 0.5 0 0 1 50.15 54.125 L 50.15 41.125 A 0.5 0.5 0 0 1 50.65 40.625 Z M 69.7 40.625 L 82.7 40.625 A 0.5 0.5 0 0 1 83.2 41.125 L 83.2 54.125 A 0.5 0.5 0 0 1 82.7 54.625 L 69.7 54.625 A 0.5 0.5 0 0 1 69.2 54.125 L 69.2 41.125 A 0.5 0.5 0 0 1 69.7 40.625 Z M 88.75 40.625 L 101.75 40.625 A 0.5 0.5 0 0 1 102.25 41.125 L 102.25 54.125 A 0.5 0.5 0 0 1 101.75 54.625 L 88.75 54.625 A 0.5 0.5 0 0 1 88.25 54.125 L 88.25 41.125 A 0.5 0.5 0 0 1 88.75 40.625 Z M 107.8 40.625 L 120.8 40.625 A 0.5 0.5 0 0 1 121.3 41.125 L 121.3 54.125 A 0.5 0.5 0 0 1 120.8 54.625 L 107.8 54.625 A 0.5 0.5 0 0 1 107.3 54.125 L 107.3 41.125 A 0.5 0.5 0 0 1 107.8 40.625 Z M 126.85 40.625 L 139.85 40.625 A 0.5 0.5 0 0 1 140.35 41.125 L 140.35 54.125 A 0.5 0.5 0 0 1 139.85 54.625 L 126.85 54.625 A 0.5 0.5 0 0 1 126.35 54.125 L 126.35 41.125 A 0.5 0.5 0 0 1 126.85 40.625 Z M 145.9 40.625 L 158.9 40.625 A 0.5 0.5 0 0 1 159.4 41.125 L 159.4 54.125 A 0.5 0.5 0 0 1 158.9 54.625 L 145.9 54.625 A 0.5 0.5 0 0 1 145.4 54.125 L 145.4 41.125 A 0.5 0.5 0 0 1 145.9 40.625 Z M 164.95 40.625 L 177.95 40.625 A 0.5 0.5 0 0 1 178.45 41.125 L 178.45 54.125 A 0.5 0.5 0 0 1 177.95 54.625 L 164.95 54.625 A 0.5 0.5 0 0 1 164.45 54.125 L 164.45 41.125 A 0.5 0.5 0 0 1 164.95 40.625 Z M 184 40.625 L 197 40.625 A 0.5 0.5 0 0 1 197.5 41.125 L 197.5 54.125 A 0.5 0.5 0 0 1 197 54.625 L 184 54.625 A 0.5 0.5 0 0 1 183.5 54.125 L 183.5 41.125 A 0.5 0.5 0 0 1 184 40.625 Z M 203.05 40.625 L 216.05 40.625 A 0.5 0.5 0 0 1 216.55 41.125 L 216.55 54.125 A 0.5 0.5 0 0 1 216.05 54.625 L 203.05 54.625 A 0.5 0.5 0 0 1 202.55 54.125 L 202.55 41.125 A 0.5 0.5 0 0 1 203.05 40.625 Z M 222.1 40.625 L 235.1 40.625 A 0.5 0.5 0 0 1 235.6 41.125 L 235.6 54.125 A 0.5 0.5 0 0 1 235.1 54.625 L 222.1 54.625 A 0.5 0.5 0 0 1 221.6 54.125 L 221.6 41.125 A 0.5 0.5 0 0 1 222.1 40.625 Z M 241.15 40.625 L 254.15 40.625 A 0.5 0.5 0 0 1 254.65 41.125 L 254.65 54.125 A 0.5 0.5 0 0 1 254.15 54.625 L 241.15 54.625 A 0.5 0.5 0 0 1 240.65 54.125 L 240.65 41.125 A 0.5 0.5 0 0 1 241.15 40.625 Z M 264.963 40.625 L 277.963 40.625 A 0.5 0.5 0 0 1 278.463 41.125 L 278.463 54.125 A 0.5 0.5 0 0 1 277.963 54.625 L 264.963 54.625 A 0.5 0.5 0 0 1 264.463 54.125 L 264.463 41.125 A 0.5 0.5 0 0 1 264.963 40.625 Z M 10.169 59.675 L 23.169 59.675 A 0.5 0.5 0 0 1 23.669 60.175 L 23.669 73.175 A 0.5 0.5 0 0 1 23.169 73.675 L 10.169 73.675 A 0.5 0.5 0 0 1 9.669 73.175 L 9.669 60.175 A 0.5 0.5 0 0 1 10.169 59.675 Z M 36.363 59.675 L 49.363 59.675 A 0.5 0.5 0 0 1 49.863 60.175 L 49.863 73.175 A 0.5 0.5 0 0 1 49.363 73.675 L 36.363 73.675 A 0.5 0.5 0 0 1 35.863 73.175 L 35.863 60.175 A 0.5 0.5 0 0 1 36.363 59.675 Z M 74.463 59.675 L 87.463 59.675 A 0.5 0.5 0 0 1 87.963 60.175 L 87.963 73.175 A 0.5 0.5 0 0 1 87.463 73.675 L 74.463 73.675 A 0.5 0.5 0 0 1 73.963 73.175 L 73.963 60.175 A 0.5 0.5 0 0 1 74.463 59.675 Z M 93.513 59.675 L 106.513 59.675 A 0.5 0.5 0 0 1 107.013 60.175 L 107.013 73.175 A 0.5 0.5 0 0 1 106.513 73.675 L 93.513 73.675 A 0.5 0.5 0 0 1 93.013 73.175 L 93.013 60.175 A 0.5 0.5 0 0 1 93.513 59.675 Z M 112.563 59.675 L 125.563 59.675 A 0.5 0.5 0 0 1 126.063 60.175 L 126.063 73.175 A 0.5 0.5 0 0 1 125.563 73.675 L 112.563 73.675 A 0.5 0.5 0 0 1 112.063 73.175 L 112.063 60.175 A 0.5 0.5 0 0 1 112.563 59.675 Z M 131.613 59.675 L 144.613 59.675 A 0.5 0.5 0 0 1 145.113 60.175 L 145.113 73.175 A 0.5 0.5 0 0 1 144.613 73.675 L 131.613 73.675 A 0.5 0.5 0 0 1 131.113 73.175 L 131.113 60.175 A 0.5 0.5 0 0 1 131.613 59.675 Z M 150.663 59.675 L 163.663 59.675 A 0.5 0.5 0 0 1 164.163 60.175 L 164.163 73.175 A 0.5 0.5 0 0 1 163.663 73.675 L 150.663 73.675 A 0.5 0.5 0 0 1 150.163 73.175 L 150.163 60.175 A 0.5 0.5 0 0 1 150.663 59.675 Z M 169.713 59.675 L 182.713 59.675 A 0.5 0.5 0 0 1 183.213 60.175 L 183.213 73.175 A 0.5 0.5 0 0 1 182.713 73.675 L 169.713 73.675 A 0.5 0.5 0 0 1 169.213 73.175 L 169.213 60.175 A 0.5 0.5 0 0 1 169.713 59.675 Z M 188.763 59.675 L 201.763 59.675 A 0.5 0.5 0 0 1 202.263 60.175 L 202.263 73.175 A 0.5 0.5 0 0 1 201.763 73.675 L 188.763 73.675 A 0.5 0.5 0 0 1 188.263 73.175 L 188.263 60.175 A 0.5 0.5 0 0 1 188.763 59.675 Z M 207.813 59.675 L 220.813 59.675 A 0.5 0.5 0 0 1 221.313 60.175 L 221.313 73.175 A 0.5 0.5 0 0 1 220.813 73.675 L 207.813 73.675 A 0.5 0.5 0 0 1 207.313 73.175 L 207.313 60.175 A 0.5 0.5 0 0 1 207.813 59.675 Z M 226.863 59.675 L 239.863 59.675 A 0.5 0.5 0 0 1 240.363 60.175 L 240.363 73.175 A 0.5 0.5 0 0 1 239.863 73.675 L 226.863 73.675 A 0.5 0.5 0 0 1 226.363 73.175 L 226.363 60.175 A 0.5 0.5 0 0 1 226.863 59.675 Z M 257.819 59.675 L 270.819 59.675 A 0.5 0.5 0 0 1 271.319 60.175 L 271.319 73.175 A 0.5 0.5 0 0 1 270.819 73.675 L 257.819 73.675 A 0.5 0.5 0 0 1 257.319 73.175 L 257.319 60.175 A 0.5 0.5 0 0 1 257.819 59.675 Z M 14.931 78.725 L 27.931 78.725 A 0.5 0.5 0 0 1 28.431 79.225 L 28.431 92.225 A 0.5 0.5 0 0 1 27.931 92.725 L 14.931 92.725 A 0.5 0.5 0 0 1 14.431 92.225 L 14.431 79.225 A 0.5 0.5 0 0 1 14.931 78.725 Z M 45.888 78.725 L 58.888 78.725 A 0.5 0.5 0 0 1 59.388 79.225 L 59.388 92.225 A 0.5 0.5 0 0 1 58.888 92.725 L 45.888 92.725 A 0.5 0.5 0 0 1 45.388 92.225 L 45.388 79.225 A 0.5 0.5 0 0 1 45.888 78.725 Z M 64.938 78.725 L 77.938 78.725 A 0.5 0.5 0 0 1 78.438 79.225 L 78.438 92.225 A 0.5 0.5 0 0 1 77.938 92.725 L 64.938 92.725 A 0.5 0.5 0 0 1 64.438 92.225 L 64.438 79.225 A 0.5 0.5 0 0 1 64.938 78.725 Z M 83.988 78.725 L 96.988 78.725 A 0.5 0.5 0 0 1 97.488 79.225 L 97.488 92.225 A 0.5 0.5 0 0 1 96.988 92.725 L 83.988 92.725 A 0.5 0.5 0 0 1 83.488 92.225 L 83.488 79.225 A 0.5 0.5 0 0 1 83.988 78.725 Z M 103.038 78.725 L 116.038 78.725 A 0.5 0.5 0 0 1 116.538 79.225 L 116.538 92.225 A 0.5 0.5 0 0 1 116.038 92.725 L 103.038 92.725 A 0.5 0.5 0 0 1 102.538 92.225 L 102.538 79.225 A 0.5 0.5 0 0 1 103.038 78.725 Z M 122.088 78.725 L 135.088 78.725 A 0.5 0.5 0 0 1 135.588 79.225 L 135.588 92.225 A 0.5 0.5 0 0 1 135.088 92.725 L 122.088 92.725 A 0.5 0.5 0 0 1 121.588 92.225 L 121.588 79.225 A 0.5 0.5 0 0 1 122.088 78.725 Z M 141.138 78.725 L 154.138 78.725 A 0.5 0.5 0 0 1 154.638 79.225 L 154.638 92.225 A 0.5 0.5 0 0 1 154.138 92.725 L 141.138 92.725 A 0.5 0.5 0 0 1 140.638 92.225 L 140.638 79.225 A 0.5 0.5 0 0 1 141.138 78.725 Z M 160.188 78.725 L 173.188 78.725 A 0.5 0.5 0 0 1 173.688 79.225 L 173.688 92.225 A 0.5 0.5 0 0 1 173.188 92.725 L 160.188 92.725 A 0.5 0.5 0 0 1 159.688 92.225 L 159.688 79.225 A 0.5 0.5 0 0 1 160.188 78.725 Z M 179.238 78.725 L 192.238 78.725 A 0.5 0.5 0 0 1 192.738 79.225 L 192.738 92.225 A 0.5 0.5 0 0 1 192.238 92.725 L 179.238 92.725 A 0.5 0.5 0 0 1 178.738 92.225 L 178.738 79.225 A 0.5 0.5 0 0 1 179.238 78.725 Z M 198.288 78.725 L 211.288 78.725 A 0.5 0.5 0 0 1 211.788 79.225 L 211.788 92.225 A 0.5 0.5 0 0 1 211.288 92.725 L 198.288 92.725 A 0.5 0.5 0 0 1 197.788 92.225 L 197.788 79.225 A 0.5 0.5 0 0 1 198.288 78.725 Z M 224.481 78.725 L 237.481 78.725 A 0.5 0.5 0 0 1 237.981 79.225 L 237.981 92.225 A 0.5 0.5 0 0 1 237.481 92.725 L 224.481 92.725 A 0.5 0.5 0 0 1 223.981 92.225 L 223.981 79.225 A 0.5 0.5 0 0 1 224.481 78.725 Z M 250.675 78.725 L 263.675 78.725 A 0.5 0.5 0 0 1 264.175 79.225 L 264.175 92.225 A 0.5 0.5 0 0 1 263.675 92.725 L 250.675 92.725 A 0.5 0.5 0 0 1 250.175 92.225 L 250.175 79.225 A 0.5 0.5 0 0 1 250.675 78.725 Z M 269.725 78.725 L 282.725 78.725 A 0.5 0.5 0 0 1 283.225 79.225 L 283.225 92.225 A 0.5 0.5 0 0 1 282.725 92.725 L 269.725 92.725 A 0.5 0.5 0 0 1 269.225 92.225 L 269.225 79.225 A 0.5 0.5 0 0 1 269.725 78.725 Z M 5.406 97.775 L 18.406 97.775 A 0.5 0.5 0 0 1 18.906 98.275 L 18.906 111.275 A 0.5 0.5 0 0 1 18.406 111.775 L 5.406 111.775 A 0.5 0.5 0 0 1 4.906 111.275 L 4.906 98.275 A 0.5 0.5 0 0 1 5.406 97.775 Z M 29.219 97.775 L 42.219 97.775 A 0.5 0.5 0 0 1 42.719 98.275 L 42.719 111.275 A 0.5 0.5 0 0 1 42.219 111.775 L 29.219 111.775 A 0.5 0.5 0 0 1 28.719 111.275 L 28.719 98.275 A 0.5 0.5 0 0 1 29.219 97.775 Z M 53.031 97.775 L 66.031 97.775 A 0.5 0.5 0 0 1 66.531 98.275 L 66.531 111.275 A 0.5 0.5 0 0 1 66.031 111.775 L 53.031 111.775 A 0.5 0.5 0 0 1 52.531 111.275 L 52.531 98.275 A 0.5 0.5 0 0 1 53.031 97.775 Z M 124.469 97.775 L 137.469 97.775 A 0.5 0.5 0 0 1 137.969 98.275 L 137.969 111.275 A 0.5 0.5 0 0 1 137.469 111.775 L 124.469 111.775 A 0.5 0.5 0 0 1 123.969 111.275 L 123.969 98.275 A 0.5 0.5 0 0 1 124.469 97.775 Z M 203.05 97.775 L 216.05 97.775 A 0.5 0.5 0 0 1 216.55 98.275 L 216.55 111.275 A 0.5 0.5 0 0 1 216.05 111.775 L 203.05 111.775 A 0.5 0.5 0 0 1 202.55 111.275 L 202.55 98.275 A 0.5 0.5 0 0 1 203.05 97.775 Z M 231.625 97.775 L 244.625 97.775 A 0.5 0.5 0 0 1 245.125 98.275 L 245.125 111.275 A 0.5 0.5 0 0 1 244.625 111.775 L 231.625 111.775 A 0.5 0.5 0 0 1 231.125 111.275 L 231.125 98.275 A 0.5 0.5 0 0 1 231.625 97.775 Z M 250.675 97.775 L 263.675 97.775 A 0.5 0.5 0 0 1 264.175 98.275 L 264.175 111.275 A 0.5 0.5 0 0 1 263.675 111.775 L 250.675 111.775 A 0.5 0.5 0 0 1 250.175 111.275 L 250.175 98.275 A 0.5 0.5 0 0 1 250.675 97.775 Z M 269.725 97.775 L 282.725 97.775 A 0.5 0.5 0 0 1 283.225 98.275 L 283.225 111.275 A 0.5 0.5 0 0 1 282.725 111.775 L 269.725 111.775 A 0.5 0.5 0 0 1 269.225 111.275 L 269.225 98.275 A 0.5 0.5 0 0 1 269.725 97.775 Z M 3.025 2.525 L 16.025 2.525 A 0.5 0.5 0 0 1 16.525 3.025 L 16.525 16.025 A 0.5 0.5 0 0 1 16.025 16.525 L 3.025 16.525 A 0.5 0.5 0 0 1 2.525 16.025 L 2.525 3.025 A 0.5 0.5 0 0 1 3.025 2.525 Z M 41.125 2.525 L 54.125 2.525 A 0.5 0.5 0 0 1 54.625 3.025 L 54.625 16.025 A 0.5 0.5 0 0 1 54.125 16.525 L 41.125 16.525 A 0.5 0.5 0 0 1 40.625 16.025 L 40.625 3.025 A 0.5 0.5 0 0 1 41.125 2.525 Z M 60.175 2.525 L 73.175 2.525 A 0.5 0.5 0 0 1 73.675 3.025 L 73.675 16.025 A 0.5 0.5 0 0 1 73.175 16.525 L 60.175 16.525 A 0.5 0.5 0 0 1 59.675 16.025 L 59.675 3.025 A 0.5 0.5 0 0 1 60.175 2.525 Z M 79.225 2.525 L 92.225 2.525 A 0.5 0.5 0 0 1 92.725 3.025 L 92.725 16.025 A 0.5 0.5 0 0 1 92.225 16.525 L 79.225 16.525 A 0.5 0.5 0 0 1 78.725 16.025 L 78.725 3.025 A 0.5 0.5 0 0 1 79.225 2.525 Z M 98.275 2.525 L 111.275 2.525 A 0.5 0.5 0 0 1 111.775 3.025 L 111.775 16.025 A 0.5 0.5 0 0 1 111.275 16.525 L 98.275 16.525 A 0.5 0.5 0 0 1 97.775 16.025 L 97.775 3.025 A 0.5 0.5 0 0 1 98.275 2.525 Z M 136.375 2.525 L 149.375 2.525 A 0.5 0.5 0 0 1 149.875 3.025 L 149.875 16.025 A 0.5 0.5 0 0 1 149.375 16.525 L 136.375 16.525 A 0.5 0.5 0 0 1 135.875 16.025 L 135.875 3.025 A 0.5 0.5 0 0 1 136.375 2.525 Z M 155.425 2.525 L 168.425 2.525 A 0.5 0.5 0 0 1 168.925 3.025 L 168.925 16.025 A 0.5 0.5 0 0 1 168.425 16.525 L 155.425 16.525 A 0.5 0.5 0 0 1 154.925 16.025 L 154.925 3.025 A 0.5 0.5 0 0 1 155.425 2.525 Z M 174.475 2.525 L 187.475 2.525 A 0.5 0.5 0 0 1 187.975 3.025 L 187.975 16.025 A 0.5 0.5 0 0 1 187.475 16.525 L 174.475 16.525 A 0.5 0.5 0 0 1 173.975 16.025 L 173.975 3.025 A 0.5 0.5 0 0 1 174.475 2.525 Z M 193.525 2.525 L 206.525 2.525 A 0.5 0.5 0 0 1 207.025 3.025 L 207.025 16.025 A 0.5 0.5 0 0 1 206.525 16.525 L 193.525 16.525 A 0.5 0.5 0 0 1 193.025 16.025 L 193.025 3.025 A 0.5 0.5 0 0 1 193.525 2.525 Z M 212.575 2.525 L 225.575 2.525 A 0.5 0.5 0 0 1 226.075 3.025 L 226.075 16.025 A 0.5 0.5 0 0 1 225.575 16.525 L 212.575 16.525 A 0.5 0.5 0 0 1 212.075 16.025 L 212.075 3.025 A 0.5 0.5 0 0 1 212.575 2.525 Z M 231.625 2.525 L 244.625 2.525 A 0.5 0.5 0 0 1 245.125 3.025 L 245.125 16.025 A 0.5 0.5 0 0 1 244.625 16.525 L 231.625 16.525 A 0.5 0.5 0 0 1 231.125 16.025 L 231.125 3.025 A 0.5 0.5 0 0 1 231.625 2.525 Z M 250.675 2.525 L 263.675 2.525 A 0.5 0.5 0 0 1 264.175 3.025 L 264.175 16.025 A 0.5 0.5 0 0 1 263.675 16.525 L 250.675 16.525 A 0.5 0.5 0 0 1 250.175 16.025 L 250.175 3.025 A 0.5 0.5 0 0 1 250.675 2.525 Z M 269.725 2.525 L 282.725 2.525 A 0.5 0.5 0 0 1 283.225 3.025 L 283.225 16.025 A 0.5 0.5 0 0 1 282.725 16.525 L 269.725 16.525 A 0.5 0.5 0 0 1 269.225 16.025 L 269.225 3.025 A 0.5 0.5 0 0 1 269.725 2.525 Z M 55.413 59.675 L 68.413 59.675 A 0.5 0.5 0 0 1 68.913 60.175 L 68.913 73.175 A 0.5 0.5 0 0 1 68.413 73.675 L 55.413 73.675 A 0.5 0.5 0 0 1 54.913 73.175 L 54.913 60.175 A 0.5 0.5 0 0 1 55.413 59.675 Z M 117.325 21.575 L 130.325 21.575 A 0.5 0.5 0 0 1 130.825 22.075 L 130.825 35.075 A 0.5 0.5 0 0 1 130.325 35.575 L 117.325 35.575 A 0.5 0.5 0 0 1 116.825 35.075 L 116.825 22.075 A 0.5 0.5 0 0 1 117.325 21.575 Z M 117.325 2.525 L 130.325 2.525 A 0.5 0.5 0 0 1 130.825 3.025 L 130.825 16.025 A 0.5 0.5 0 0 1 130.325 16.525 L 117.325 16.525 A 0.5 0.5 0 0 1 116.825 16.025 L 116.825 3.025 A 0.5 0.5 0 0 1 117.325 2.525 Z M 251.762 22.575 L 257.762 22.575 A 0.5 0.5 0 0 1 258.262 23.075 L 258.262 37.075 A 0.5 0.5 0 0 1 257.762 37.575 L 251.762 37.575 A 0.5 0.5 0 0 1 251.262 37.075 L 251.262 23.075 A 0.5 0.5 0 0 1 251.762 22.575 Z M 275.638 22.575 L 281.638 22.575 A 0.5 0.5 0 0 1 282.138 23.075 L 282.138 37.075 A 0.5 0.5 0 0 1 281.638 37.575 L 275.638 37.575 A 0.5 0.5 0 0 1 275.138 37.075 L 275.138 23.075 A 0.5 0.5 0 0 1 275.638 22.575 Z M 249.381 60.675 L 255.381 60.675 A 0.5 0.5 0 0 1 255.881 61.175 L 255.881 75.175 A 0.5 0.5 0 0 1 255.381 75.675 L 249.381 75.675 A 0.5 0.5 0 0 1 248.881 75.175 L 248.881 61.175 A 0.5 0.5 0 0 1 249.381 60.675 Z M 273.257 60.675 L 279.257 60.675 A 0.5 0.5 0 0 1 279.757 61.175 L 279.757 75.175 A 0.5 0.5 0 0 1 279.257 75.675 L 273.257 75.675 A 0.5 0.5 0 0 1 272.757 75.175 L 272.757 61.175 A 0.5 0.5 0 0 1 273.257 60.675 Z M 6.493 79.725 L 12.493 79.725 A 0.5 0.5 0 0 1 12.993 80.225 L 12.993 94.225 A 0.5 0.5 0 0 1 12.493 94.725 L 6.493 94.725 A 0.5 0.5 0 0 1 5.993 94.225 L 5.993 80.225 A 0.5 0.5 0 0 1 6.493 79.725 Z M 30.369 79.725 L 36.369 79.725 A 0.5 0.5 0 0 1 36.869 80.225 L 36.869 94.225 A 0.5 0.5 0 0 1 36.369 94.725 L 30.369 94.725 A 0.5 0.5 0 0 1 29.869 94.225 L 29.869 80.225 A 0.5 0.5 0 0 1 30.369 79.725 Z M 77.969 98.775 L 83.969 98.775 A 0.5 0.5 0 0 1 84.469 99.275 L 84.469 113.275 A 0.5 0.5 0 0 1 83.969 113.775 L 77.969 113.775 A 0.5 0.5 0 0 1 77.469 113.275 L 77.469 99.275 A 0.5 0.5 0 0 1 77.969 98.775 Z M 177.969 98.775 L 183.969 98.775 A 0.5 0.5 0 0 1 184.469 99.275 L 184.469 113.275 A 0.5 0.5 0 0 1 183.969 113.775 L 177.969 113.775 A 0.5 0.5 0 0 1 177.469 113.275 L 177.469 99.275 A 0.5 0.5 0 0 1 177.969 98.775 Z M 194.612 98.775 L 200.612 98.775 A 0.5 0.5 0 0 1 201.112 99.275 L 201.112 113.275 A 0.5 0.5 0 0 1 200.612 113.775 L 194.612 113.775 A 0.5 0.5 0 0 1 194.112 113.275 L 194.112 99.275 A 0.5 0.5 0 0 1 194.612 98.775 Z M 218.488 98.775 L 224.488 98.775 A 0.5 0.5 0 0 1 224.988 99.275 L 224.988 113.275 A 0.5 0.5 0 0 1 224.488 113.775 L 218.488 113.775 A 0.5 0.5 0 0 1 217.988 113.275 L 217.988 99.275 A 0.5 0.5 0 0 1 218.488 98.775 Z" vector-effect="non-scaling-stroke"/></g></svg>