<svg width="481" height="110" viewBox="0 0 481 110" fill="none" xmlns="http://www.w3.org/2000/svg">
<g clip-path="url(#clip0_479_1309)">
<path d="M25.8665 104.787C21.9508 108.755 15.5466 108.755 11.6309 104.787L6.93148 100.025C3.08855 96.1308 3.08854 89.8712 6.93147 85.977L30.5688 62.024C34.4117 58.1298 34.4117 51.8702 30.5688 47.976L6.93147 24.023C3.08855 20.1288 3.08854 13.8692 6.93148 9.97499L11.6309 5.21283C15.5466 1.24486 21.9508 1.24487 25.8665 5.21285L56.2485 36.0005C56.2493 36.0013 56.2505 36.0013 56.2513 36.0005V36.0005C56.2521 35.9997 56.2534 35.9997 56.2542 36.0005L86.6352 66.7872C90.5509 70.7552 96.9551 70.7551 100.871 66.7872L105.571 62.024C109.414 58.1298 109.414 51.8702 105.571 47.976L99.11 41.4286C96.163 38.4422 91.343 38.4422 88.396 41.4286V41.4286C85.4489 44.415 80.6289 44.415 77.6819 41.4286L71.2198 34.8802C67.3768 30.986 67.3768 24.7264 71.2198 20.8322L86.6333 5.21285C90.549 1.24488 96.9532 1.24487 100.869 5.21285L143.069 47.976C146.911 51.8702 146.911 58.1298 143.069 62.024L100.869 104.787C96.9532 108.755 90.549 108.755 86.6333 104.787L63.3677 81.2109C59.452 77.2429 53.0478 77.2429 49.1321 81.2109L25.8665 104.787Z" fill="white"/>
</g>
<path d="M192.848 70.396C192.592 70.78 192.336 71.068 192.08 71.26C191.824 71.42 191.424 71.5 190.88 71.5H183.584C183.296 71.5 183.04 71.404 182.816 71.212C182.624 70.988 182.528 70.732 182.528 70.444C182.528 70.252 182.576 70.076 182.672 69.916L193.76 54.412L183.152 39.484C183.056 39.292 183.008 39.116 183.008 38.956C183.008 38.668 183.104 38.428 183.296 38.236C183.52 38.012 183.776 37.9 184.064 37.9H191.312C191.856 37.9 192.256 38.012 192.512 38.236C192.8 38.46 193.072 38.748 193.328 39.1L199.136 47.212L204.752 39.1C205.008 38.748 205.264 38.46 205.52 38.236C205.808 38.012 206.224 37.9 206.768 37.9H214.112C214.4 37.9 214.64 38.012 214.832 38.236C215.056 38.428 215.168 38.668 215.168 38.956C215.168 39.116 215.12 39.292 215.024 39.484L204.368 54.604L215.36 69.916C215.456 70.076 215.504 70.252 215.504 70.444C215.504 70.732 215.392 70.988 215.168 71.212C214.976 71.404 214.736 71.5 214.448 71.5H207.152C206.608 71.5 206.208 71.42 205.952 71.26C205.696 71.068 205.44 70.78 205.184 70.396L198.992 61.756L192.848 70.396ZM241.833 63.82C242.185 63.82 242.489 63.948 242.745 64.204C243.001 64.46 243.129 64.764 243.129 65.116V70.204C243.129 70.556 243.001 70.86 242.745 71.116C242.489 71.372 242.185 71.5 241.833 71.5H219.609C219.257 71.5 218.953 71.372 218.697 71.116C218.441 70.86 218.313 70.556 218.313 70.204V39.196C218.313 38.844 218.441 38.54 218.697 38.284C218.953 38.028 219.257 37.9 219.609 37.9H225.897C226.249 37.9 226.553 38.028 226.809 38.284C227.065 38.54 227.193 38.844 227.193 39.196V63.82H241.833ZM283.999 46.876C283.999 47.164 283.887 47.42 283.663 47.644C283.471 47.836 283.247 47.932 282.991 47.932H276.703C276.255 47.932 275.903 47.884 275.647 47.788C275.391 47.66 275.103 47.452 274.783 47.164C274.719 47.1 274.511 46.892 274.159 46.54C273.807 46.156 273.247 45.82 272.479 45.532C271.743 45.244 270.879 45.1 269.887 45.1C268.511 45.1 267.375 45.292 266.479 45.676C265.615 46.028 265.183 46.652 265.183 47.548C265.183 48.188 265.455 48.7 265.999 49.084C266.543 49.436 267.375 49.756 268.495 50.044C269.647 50.332 271.631 50.764 274.447 51.34C278.063 52.076 280.719 53.228 282.415 54.796C284.111 56.364 284.959 58.604 284.959 61.516C284.959 63.628 284.319 65.484 283.039 67.084C281.791 68.652 280.031 69.868 277.759 70.732C275.519 71.564 272.975 71.98 270.127 71.98C267.375 71.98 264.879 71.5 262.639 70.54C260.399 69.58 258.639 68.332 257.359 66.796C256.079 65.26 255.407 63.676 255.343 62.044C255.343 61.756 255.439 61.516 255.631 61.324C255.855 61.1 256.095 60.988 256.351 60.988H262.639C263.343 60.988 263.951 61.212 264.463 61.66C264.559 61.756 264.815 62.044 265.231 62.524C265.647 62.972 266.271 63.388 267.103 63.772C267.967 64.124 268.975 64.3 270.127 64.3C274.095 64.3 276.079 63.452 276.079 61.756C276.079 61.212 275.791 60.764 275.215 60.412C274.671 60.028 273.887 59.708 272.863 59.452C271.839 59.196 270.207 58.828 267.967 58.348L265.807 57.916C262.543 57.212 260.143 56.044 258.607 54.412C257.071 52.748 256.303 50.54 256.303 47.788C256.303 45.932 256.863 44.22 257.983 42.652C259.103 41.052 260.687 39.788 262.735 38.86C264.815 37.9 267.199 37.42 269.887 37.42C272.479 37.42 274.847 37.916 276.991 38.908C279.135 39.868 280.815 41.084 282.031 42.556C283.279 44.028 283.935 45.468 283.999 46.876ZM313.996 60.892C313.9 62.94 313.308 64.812 312.22 66.508C311.132 68.172 309.612 69.5 307.66 70.492C305.708 71.484 303.468 71.98 300.94 71.98C298.412 71.98 296.172 71.484 294.22 70.492C292.268 69.5 290.748 68.172 289.66 66.508C288.572 64.812 287.98 62.94 287.884 60.892L287.836 59.02L287.884 57.196C287.948 55.148 288.524 53.276 289.612 51.58C290.7 49.884 292.22 48.54 294.172 47.548C296.156 46.556 298.412 46.06 300.94 46.06C303.468 46.06 305.708 46.556 307.66 47.548C309.644 48.54 311.18 49.884 312.268 51.58C313.356 53.276 313.932 55.148 313.996 57.196C314.028 57.516 314.044 58.124 314.044 59.02C314.044 59.948 314.028 60.572 313.996 60.892ZM300.94 64.54C302.22 64.54 303.244 64.204 304.012 63.532C304.812 62.828 305.26 61.868 305.356 60.652C305.42 60.012 305.452 59.468 305.452 59.02C305.452 58.572 305.42 58.028 305.356 57.388C305.26 56.172 304.812 55.228 304.012 54.556C303.244 53.852 302.22 53.5 300.94 53.5C299.66 53.5 298.62 53.852 297.82 54.556C297.052 55.228 296.62 56.172 296.524 57.388C296.492 57.708 296.476 58.252 296.476 59.02C296.476 59.788 296.492 60.332 296.524 60.652C296.62 61.868 297.052 62.828 297.82 63.532C298.62 64.204 299.66 64.54 300.94 64.54ZM335.894 46.54C336.246 46.54 336.55 46.668 336.806 46.924C337.062 47.18 337.19 47.484 337.19 47.836V52.684C337.19 53.036 337.062 53.34 336.806 53.596C336.55 53.852 336.246 53.98 335.894 53.98H329.99V70.204C329.99 70.556 329.862 70.86 329.606 71.116C329.35 71.372 329.046 71.5 328.694 71.5H322.646C322.294 71.5 321.99 71.372 321.734 71.116C321.478 70.86 321.35 70.556 321.35 70.204V53.98H318.038C317.686 53.98 317.382 53.852 317.126 53.596C316.87 53.34 316.742 53.036 316.742 52.684V47.836C316.742 47.484 316.87 47.18 317.126 46.924C317.382 46.668 317.686 46.54 318.038 46.54H321.35V45.244C321.35 42.364 322.326 40.108 324.278 38.476C326.23 36.812 328.742 35.98 331.814 35.98H336.374C336.726 35.98 337.03 36.108 337.286 36.364C337.542 36.62 337.67 36.924 337.67 37.276V42.124C337.67 42.476 337.542 42.78 337.286 43.036C337.03 43.292 336.726 43.42 336.374 43.42H332.054C330.678 43.42 329.99 44.108 329.99 45.484V46.54H335.894ZM352.069 61.756C352.069 63.292 352.757 64.06 354.133 64.06H357.973C358.325 64.06 358.629 64.188 358.885 64.444C359.141 64.7 359.269 65.004 359.269 65.356V70.204C359.269 70.556 359.141 70.86 358.885 71.116C358.629 71.372 358.325 71.5 357.973 71.5H353.413C350.373 71.5 347.941 70.652 346.117 68.956C344.325 67.26 343.429 64.956 343.429 62.044V53.98H339.877C339.525 53.98 339.221 53.852 338.965 53.596C338.709 53.34 338.581 53.036 338.581 52.684V47.836C338.581 47.484 338.709 47.18 338.965 46.924C339.221 46.668 339.525 46.54 339.877 46.54H343.429V38.716C343.429 38.364 343.557 38.06 343.812 37.804C344.069 37.548 344.373 37.42 344.725 37.42H350.773C351.125 37.42 351.429 37.548 351.685 37.804C351.941 38.06 352.069 38.364 352.069 38.716V46.54H357.493C357.845 46.54 358.149 46.668 358.405 46.924C358.661 47.18 358.789 47.484 358.789 47.836V52.684C358.789 53.036 358.661 53.34 358.405 53.596C358.149 53.852 357.845 53.98 357.493 53.98H352.069V61.756ZM382.649 46.54C383.449 46.54 383.993 46.924 384.281 47.692L387.833 58.588L391.385 47.692C391.673 46.924 392.217 46.54 393.017 46.54H398.969C399.289 46.54 399.561 46.652 399.785 46.876C400.009 47.1 400.121 47.372 400.121 47.692L400.073 48.076L392.441 70.3C392.185 71.1 391.657 71.5 390.857 71.5H385.385C384.649 71.5 384.121 71.1 383.801 70.3L380.393 60.22L376.985 70.3C376.665 71.1 376.137 71.5 375.401 71.5H369.929C369.129 71.5 368.601 71.1 368.345 70.3L360.713 48.076L360.665 47.692C360.665 47.372 360.777 47.1 361.001 46.876C361.225 46.652 361.497 46.54 361.817 46.54H367.769C368.569 46.54 369.113 46.924 369.401 47.692L372.953 58.588L376.505 47.692C376.793 46.924 377.337 46.54 378.137 46.54H382.649ZM418.276 55.18C418.276 53.42 417.348 52.54 415.492 52.54C414.436 52.54 413.572 52.828 412.9 53.404C412.644 53.66 412.388 53.82 412.132 53.884C411.876 53.948 411.556 53.98 411.172 53.98H405.076C404.756 53.98 404.484 53.884 404.26 53.692C404.068 53.5 403.988 53.244 404.02 52.924C404.116 51.932 404.66 50.908 405.652 49.852C406.676 48.764 408.052 47.868 409.78 47.164C411.508 46.428 413.412 46.06 415.492 46.06C419.3 46.06 422.148 46.924 424.036 48.652C425.956 50.38 426.916 52.716 426.916 55.66V70.204C426.916 70.556 426.788 70.86 426.531 71.116C426.276 71.372 425.972 71.5 425.62 71.5H419.572C419.22 71.5 418.916 71.372 418.66 71.116C418.404 70.86 418.276 70.556 418.276 70.204V68.86C417.444 69.884 416.452 70.668 415.299 71.212C414.148 71.724 412.692 71.98 410.932 71.98C408.244 71.98 406.132 71.276 404.596 69.868C403.092 68.46 402.34 66.636 402.34 64.396C402.34 62.252 403.172 60.492 404.836 59.116C406.5 57.74 409.108 56.748 412.66 56.14L418.276 55.18ZM413.859 61.564C412.964 61.724 412.26 62.012 411.748 62.428C411.236 62.812 410.98 63.292 410.98 63.868C410.98 64.956 411.748 65.5 413.284 65.5C414.692 65.5 415.876 65.052 416.836 64.156C417.796 63.26 418.276 62.172 418.276 60.892L413.859 61.564ZM449.427 46.54C449.779 46.54 450.083 46.668 450.339 46.924C450.595 47.18 450.723 47.484 450.723 47.836V52.684C450.723 53.036 450.595 53.34 450.339 53.596C450.083 53.852 449.779 53.98 449.427 53.98H445.059C443.619 53.98 442.515 54.364 441.747 55.132C441.011 55.868 440.643 56.956 440.643 58.396V70.204C440.643 70.556 440.515 70.86 440.259 71.116C440.003 71.372 439.699 71.5 439.347 71.5H433.299C432.947 71.5 432.643 71.372 432.387 71.116C432.131 70.86 432.003 70.556 432.003 70.204V47.836C432.003 47.484 432.131 47.18 432.387 46.924C432.643 46.668 432.947 46.54 433.299 46.54H438.867C439.219 46.54 439.523 46.668 439.779 46.924C440.035 47.18 440.163 47.484 440.163 47.836V48.94C441.827 47.34 443.955 46.54 446.547 46.54H449.427ZM461.522 61.756C461.522 63.1 461.954 64.06 462.818 64.636C463.682 65.212 464.69 65.5 465.842 65.5C466.738 65.5 467.474 65.404 468.05 65.212C468.626 65.02 469.122 64.748 469.538 64.396C469.89 64.108 470.146 63.932 470.306 63.868C470.466 63.772 470.738 63.724 471.122 63.724H477.362C477.682 63.724 477.938 63.82 478.13 64.012C478.322 64.204 478.418 64.46 478.418 64.78C478.418 65.42 477.938 66.332 476.978 67.516C476.018 68.668 474.594 69.708 472.706 70.636C470.818 71.532 468.53 71.98 465.842 71.98C461.714 71.98 458.514 70.844 456.242 68.572C454.002 66.268 452.882 63.084 452.882 59.02C452.882 56.492 453.378 54.252 454.37 52.3C455.394 50.348 456.882 48.828 458.834 47.74C460.786 46.62 463.122 46.06 465.842 46.06C468.818 46.06 471.266 46.7 473.186 47.98C475.138 49.228 476.562 50.86 477.458 52.876C478.354 54.86 478.802 56.94 478.802 59.116V60.46C478.802 60.812 478.674 61.116 478.418 61.372C478.162 61.628 477.858 61.756 477.506 61.756H461.522ZM470.162 56.428C470.034 55.34 469.586 54.428 468.818 53.692C468.082 52.924 467.09 52.54 465.842 52.54C464.594 52.54 463.586 52.924 462.818 53.692C462.082 54.428 461.65 55.34 461.522 56.428H470.162Z" fill="white"/>
<defs>
<clipPath id="clip0_479_1309">
<rect width="150" height="110" fill="white"/>
</clipPath>
</defs>
</svg>
